{
    "asset" : {
        "generator" : "Khronos glTF Blender I/O v1.7.33",
        "version" : "2.0"
    },
    "scene" : 0,
    "scenes" : [
        {
            "name" : "Scene",
            "nodes" : [
                2
            ]
        }
    ],
    "nodes" : [
        {
            "mesh" : 0,
            "name" : "turret",
            "translation" : [
                0,
                0.30000001192092896,
                -0.02499997615814209
            ]
        },
        {
            "children" : [
                0
            ],
            "mesh" : 1,
            "name" : "turret_double"
        },
        {
            "children" : [
                1
            ],
            "name" : "tmpParent"
        }
    ],
    "materials" : [
        {
            "name" : "metalRed",
            "pbrMetallicRoughness" : {
                "baseColorFactor" : [
                    1,
                    0.6285242438316345,
                    0.20283019542694092,
                    1
                ]
            }
        },
        {
            "name" : "metal",
            "pbrMetallicRoughness" : {
                "baseColorFactor" : [
                    0.843137264251709,
                    0.8705882430076599,
                    0.9098039269447327,
                    1
                ]
            }
        },
        {
            "name" : "dark",
            "pbrMetallicRoughness" : {
                "baseColorFactor" : [
                    0.27450981736183167,
                    0.2980392277240753,
                    0.34117648005485535,
                    1
                ]
            }
        },
        {
            "name" : "metalDark",
            "pbrMetallicRoughness" : {
                "baseColorFactor" : [
                    0.6750622987747192,
                    0.7100219130516052,
                    0.7735849022865295,
                    1
                ]
            }
        }
    ],
    "meshes" : [
        {
            "name" : "Mesh turret",
            "primitives" : [
                {
                    "attributes" : {
                        "POSITION" : 0,
                        "NORMAL" : 1,
                        "TEXCOORD_0" : 2
                    },
                    "indices" : 3,
                    "material" : 0
                },
                {
                    "attributes" : {
                        "POSITION" : 4,
                        "NORMAL" : 5,
                        "TEXCOORD_0" : 6
                    },
                    "indices" : 7,
                    "material" : 1
                },
                {
                    "attributes" : {
                        "POSITION" : 8,
                        "NORMAL" : 9,
                        "TEXCOORD_0" : 10
                    },
                    "indices" : 11,
                    "material" : 2
                }
            ]
        },
        {
            "name" : "Mesh turret_double",
            "primitives" : [
                {
                    "attributes" : {
                        "POSITION" : 12,
                        "NORMAL" : 13,
                        "TEXCOORD_0" : 14
                    },
                    "indices" : 15,
                    "material" : 2
                },
                {
                    "attributes" : {
                        "POSITION" : 16,
                        "NORMAL" : 17,
                        "TEXCOORD_0" : 18
                    },
                    "indices" : 19,
                    "material" : 1
                },
                {
                    "attributes" : {
                        "POSITION" : 20,
                        "NORMAL" : 21,
                        "TEXCOORD_0" : 22
                    },
                    "indices" : 23,
                    "material" : 3
                }
            ]
        }
    ],
    "accessors" : [
        {
            "bufferView" : 0,
            "componentType" : 5126,
            "count" : 227,
            "max" : [
                0.44999998807907104,
                0.4000000059604645,
                0.2750000059604645
            ],
            "min" : [
                -0.44999998807907104,
                0,
                -0.22499999403953552
            ],
            "type" : "VEC3"
        },
        {
            "bufferView" : 1,
            "componentType" : 5126,
            "count" : 227,
            "type" : "VEC3"
        },
        {
            "bufferView" : 2,
            "componentType" : 5126,
            "count" : 227,
            "type" : "VEC2"
        },
        {
            "bufferView" : 3,
            "componentType" : 5123,
            "count" : 318,
            "type" : "SCALAR"
        },
        {
            "bufferView" : 4,
            "componentType" : 5126,
            "count" : 904,
            "max" : [
                0.375,
                0.3499999940395355,
                0.22499999403953552
            ],
            "min" : [
                -0.375,
                0.07500000298023224,
                -0.2750000059604645
            ],
            "type" : "VEC3"
        },
        {
            "bufferView" : 5,
            "componentType" : 5126,
            "count" : 904,
            "type" : "VEC3"
        },
        {
            "bufferView" : 6,
            "componentType" : 5126,
            "count" : 904,
            "type" : "VEC2"
        },
        {
            "bufferView" : 7,
            "componentType" : 5123,
            "count" : 1200,
            "type" : "SCALAR"
        },
        {
            "bufferView" : 8,
            "componentType" : 5126,
            "count" : 410,
            "max" : [
                0.4000000059604645,
                0.4000000059604645,
                0.2750000059604645
            ],
            "min" : [
                -0.4000000059604645,
                0.05000000074505806,
                -0.2750000059604645
            ],
            "type" : "VEC3"
        },
        {
            "bufferView" : 9,
            "componentType" : 5126,
            "count" : 410,
            "type" : "VEC3"
        },
        {
            "bufferView" : 10,
            "componentType" : 5126,
            "count" : 410,
            "type" : "VEC2"
        },
        {
            "bufferView" : 11,
            "componentType" : 5123,
            "count" : 654,
            "type" : "SCALAR"
        },
        {
            "bufferView" : 12,
            "componentType" : 5126,
            "count" : 138,
            "max" : [
                0.30000001192092896,
                0.05000000074505806,
                0.30000001192092896
            ],
            "min" : [
                -0.30000001192092896,
                0,
                -0.30000001192092896
            ],
            "type" : "VEC3"
        },
        {
            "bufferView" : 13,
            "componentType" : 5126,
            "count" : 138,
            "type" : "VEC3"
        },
        {
            "bufferView" : 14,
            "componentType" : 5126,
            "count" : 138,
            "type" : "VEC2"
        },
        {
            "bufferView" : 15,
            "componentType" : 5123,
            "count" : 162,
            "type" : "SCALAR"
        },
        {
            "bufferView" : 16,
            "componentType" : 5126,
            "count" : 20,
            "max" : [
                0.10000000149011612,
                0.3499999940395355,
                0.10000000149011612
            ],
            "min" : [
                -0.10000000149011612,
                0.15000000596046448,
                -0.10000000149011612
            ],
            "type" : "VEC3"
        },
        {
            "bufferView" : 17,
            "componentType" : 5126,
            "count" : 20,
            "type" : "VEC3"
        },
        {
            "bufferView" : 18,
            "componentType" : 5126,
            "count" : 20,
            "type" : "VEC2"
        },
        {
            "bufferView" : 19,
            "componentType" : 5123,
            "count" : 30,
            "type" : "SCALAR"
        },
        {
            "bufferView" : 20,
            "componentType" : 5126,
            "count" : 186,
            "max" : [
                0.25,
                0.15000000596046448,
                0.25
            ],
            "min" : [
                -0.25,
                0.05000000074505806,
                -0.25
            ],
            "type" : "VEC3"
        },
        {
            "bufferView" : 21,
            "componentType" : 5126,
            "count" : 186,
            "type" : "VEC3"
        },
        {
            "bufferView" : 22,
            "componentType" : 5126,
            "count" : 186,
            "type" : "VEC2"
        },
        {
            "bufferView" : 23,
            "componentType" : 5123,
            "count" : 264,
            "type" : "SCALAR"
        }
    ],
    "bufferViews" : [
        {
            "buffer" : 0,
            "byteLength" : 2724,
            "byteOffset" : 0
        },
        {
            "buffer" : 0,
            "byteLength" : 2724,
            "byteOffset" : 2724
        },
        {
            "buffer" : 0,
            "byteLength" : 1816,
            "byteOffset" : 5448
        },
        {
            "buffer" : 0,
            "byteLength" : 636,
            "byteOffset" : 7264
        },
        {
            "buffer" : 0,
            "byteLength" : 10848,
            "byteOffset" : 7900
        },
        {
            "buffer" : 0,
            "byteLength" : 10848,
            "byteOffset" : 18748
        },
        {
            "buffer" : 0,
            "byteLength" : 7232,
            "byteOffset" : 29596
        },
        {
            "buffer" : 0,
            "byteLength" : 2400,
            "byteOffset" : 36828
        },
        {
            "buffer" : 0,
            "byteLength" : 4920,
            "byteOffset" : 39228
        },
        {
            "buffer" : 0,
            "byteLength" : 4920,
            "byteOffset" : 44148
        },
        {
            "buffer" : 0,
            "byteLength" : 3280,
            "byteOffset" : 49068
        },
        {
            "buffer" : 0,
            "byteLength" : 1308,
            "byteOffset" : 52348
        },
        {
            "buffer" : 0,
            "byteLength" : 1656,
            "byteOffset" : 53656
        },
        {
            "buffer" : 0,
            "byteLength" : 1656,
            "byteOffset" : 55312
        },
        {
            "buffer" : 0,
            "byteLength" : 1104,
            "byteOffset" : 56968
        },
        {
            "buffer" : 0,
            "byteLength" : 324,
            "byteOffset" : 58072
        },
        {
            "buffer" : 0,
            "byteLength" : 240,
            "byteOffset" : 58396
        },
        {
            "buffer" : 0,
            "byteLength" : 240,
            "byteOffset" : 58636
        },
        {
            "buffer" : 0,
            "byteLength" : 160,
            "byteOffset" : 58876
        },
        {
            "buffer" : 0,
            "byteLength" : 60,
            "byteOffset" : 59036
        },
        {
            "buffer" : 0,
            "byteLength" : 2232,
            "byteOffset" : 59096
        },
        {
            "buffer" : 0,
            "byteLength" : 2232,
            "byteOffset" : 61328
        },
        {
            "buffer" : 0,
            "byteLength" : 1488,
            "byteOffset" : 63560
        },
        {
            "buffer" : 0,
            "byteLength" : 528,
            "byteOffset" : 65048
        }
    ],
    "buffers" : [
        {
            "byteLength" : 65576,
            "uri" : "data:application/octet-stream;base64,"
        }
    ]
}
